# xmcd CD database file
#
# Track frame offsets:
#	150
#	16488
#	33613
#
# Disc length: 648 seconds
#
# Revision: 0
# Processed by: cddbd v1.5.1PL0 Copyright (c) Steve Scherf et al.
# Submitted via: CDex 1.51
#
DISCID=1e028603
DTITLE=HANOI ROCKS - Back In Yer Face (EP)
DYEAR=2005
DGENRE=Hard Rock
TTITLE0=Back In Yer Face
TTITLE1=Keep Our Fire Burning
TTITLE2=Better High
EXTD=YEAR: 2005
EXTT0=
EXTT1=
EXTT2=
PLAYORDER=
